<svg width="112" height="38" viewBox="0 0 112 38" fill="none" xmlns="http://www.w3.org/2000/svg">
<path d="M43.4375 19.1307C43.3466 18.3239 42.9716 17.6989 42.3125 17.2557C41.6534 16.8068 40.8239 16.5824 39.8239 16.5824C39.108 16.5824 38.4886 16.696 37.9659 16.9233C37.4432 17.1449 37.0369 17.4517 36.7472 17.8438C36.4631 18.2301 36.321 18.6705 36.321 19.1648C36.321 19.5795 36.4176 19.9375 36.6108 20.2386C36.8097 20.5398 37.0682 20.7926 37.3864 20.9972C37.7102 21.196 38.0568 21.3636 38.4261 21.5C38.7955 21.6307 39.1506 21.7386 39.4915 21.8239L41.196 22.267C41.7528 22.4034 42.3239 22.5881 42.9091 22.821C43.4943 23.054 44.0369 23.3608 44.5369 23.7415C45.0369 24.1222 45.4403 24.5938 45.7472 25.1562C46.0597 25.7188 46.2159 26.392 46.2159 27.1761C46.2159 28.1648 45.9602 29.0426 45.4489 29.8097C44.9432 30.5767 44.2074 31.1818 43.2415 31.625C42.2813 32.0682 41.1193 32.2898 39.7557 32.2898C38.4489 32.2898 37.3182 32.0824 36.3636 31.6676C35.4091 31.2528 34.6619 30.6648 34.1222 29.9034C33.5824 29.1364 33.2841 28.2273 33.2273 27.1761H35.8693C35.9205 27.8068 36.125 28.3324 36.483 28.7528C36.8466 29.1676 37.3097 29.4773 37.8722 29.6818C38.4403 29.8807 39.0625 29.9801 39.7386 29.9801C40.483 29.9801 41.1449 29.8636 41.7244 29.6307C42.3097 29.392 42.7699 29.0625 43.1051 28.642C43.4403 28.2159 43.608 27.7187 43.608 27.1506C43.608 26.6335 43.4602 26.2102 43.1648 25.8807C42.875 25.5511 42.4801 25.2784 41.9801 25.0625C41.4858 24.8466 40.9261 24.6562 40.3011 24.4915L38.2386 23.929C36.8409 23.5483 35.733 22.9886 34.9148 22.25C34.1023 21.5114 33.696 20.5341 33.696 19.3182C33.696 18.3125 33.9688 17.4347 34.5142 16.6847C35.0597 15.9347 35.7983 15.3523 36.7301 14.9375C37.6619 14.517 38.7131 14.3068 39.8835 14.3068C41.0653 14.3068 42.108 14.5142 43.0114 14.929C43.9205 15.3438 44.6364 15.9148 45.1591 16.642C45.6818 17.3636 45.9545 18.1932 45.9773 19.1307H43.4375ZM48.5874 32V23.2727H50.218V24.6932H50.326C50.5078 24.2121 50.8052 23.8371 51.218 23.5682C51.6309 23.2955 52.1252 23.1591 52.701 23.1591C53.2843 23.1591 53.773 23.2955 54.1669 23.5682C54.5646 23.8409 54.8582 24.2159 55.0476 24.6932H55.1385C55.3468 24.2273 55.6783 23.8561 56.1328 23.5795C56.5874 23.2992 57.129 23.1591 57.7578 23.1591C58.5495 23.1591 59.1953 23.4072 59.6953 23.9034C60.1991 24.3996 60.451 25.1477 60.451 26.1477V32H58.7521V26.3068C58.7521 25.7159 58.5911 25.2879 58.2692 25.0227C57.9472 24.7576 57.5627 24.625 57.1158 24.625C56.5627 24.625 56.1328 24.7955 55.826 25.1364C55.5192 25.4735 55.3658 25.9072 55.3658 26.4375V32H53.6726V26.1989C53.6726 25.7254 53.5249 25.3447 53.2294 25.0568C52.9339 24.7689 52.5495 24.625 52.076 24.625C51.754 24.625 51.4567 24.7102 51.1839 24.8807C50.915 25.0473 50.6972 25.2803 50.5305 25.5795C50.3677 25.8788 50.2862 26.2254 50.2862 26.6193V32H48.5874ZM65.2678 32.1932C64.7147 32.1932 64.2147 32.0909 63.7678 31.8864C63.3208 31.678 62.9666 31.3769 62.7053 30.983C62.4477 30.589 62.3189 30.1061 62.3189 29.5341C62.3189 29.0417 62.4136 28.6364 62.603 28.3182C62.7924 28 63.0481 27.7481 63.37 27.5625C63.692 27.3769 64.0518 27.2367 64.4496 27.142C64.8473 27.0473 65.2526 26.9754 65.6655 26.9261C66.1882 26.8655 66.6125 26.8163 66.9382 26.7784C67.264 26.7367 67.5007 26.6705 67.6484 26.5795C67.7962 26.4886 67.87 26.3409 67.87 26.1364V26.0966C67.87 25.6004 67.7299 25.2159 67.4496 24.9432C67.1731 24.6705 66.7602 24.5341 66.2109 24.5341C65.639 24.5341 65.1882 24.661 64.8587 24.9148C64.5329 25.1648 64.3075 25.4432 64.1825 25.75L62.5859 25.3864C62.7753 24.8561 63.0518 24.428 63.4155 24.1023C63.7829 23.7727 64.2053 23.5341 64.6825 23.3864C65.1598 23.2348 65.6617 23.1591 66.1882 23.1591C66.5367 23.1591 66.906 23.2008 67.2962 23.2841C67.6901 23.3636 68.0575 23.5114 68.3984 23.7273C68.7431 23.9432 69.0253 24.2519 69.245 24.6534C69.4647 25.0511 69.5746 25.5682 69.5746 26.2045V32H67.9155V30.8068H67.8473C67.7375 31.0265 67.5727 31.2424 67.353 31.4545C67.1333 31.6667 66.8511 31.8428 66.5064 31.983C66.1617 32.1231 65.7488 32.1932 65.2678 32.1932ZM65.6371 30.8295C66.1068 30.8295 66.5083 30.7367 66.8416 30.5511C67.1787 30.3655 67.4344 30.1231 67.6087 29.8239C67.7867 29.5208 67.8757 29.197 67.8757 28.8523V27.7273C67.8151 27.7879 67.6977 27.8447 67.5234 27.8977C67.353 27.947 67.1579 27.9905 66.9382 28.0284C66.7185 28.0625 66.5045 28.0947 66.2962 28.125C66.0878 28.1515 65.9136 28.1742 65.7734 28.1932C65.4439 28.2348 65.1428 28.3049 64.87 28.4034C64.6011 28.5019 64.3852 28.6439 64.2223 28.8295C64.0632 29.0114 63.9837 29.2538 63.9837 29.5568C63.9837 29.9773 64.139 30.2955 64.4496 30.5114C64.7602 30.7235 65.156 30.8295 65.6371 30.8295ZM71.8374 32V23.2727H73.4794V24.6591H73.5703C73.7294 24.1894 74.0097 23.8201 74.4112 23.5511C74.8165 23.2784 75.2749 23.142 75.7862 23.142C75.8923 23.142 76.0173 23.1458 76.1612 23.1534C76.3089 23.161 76.4245 23.1705 76.5078 23.1818V24.8068C76.4396 24.7879 76.3184 24.767 76.1442 24.7443C75.9699 24.7178 75.7957 24.7045 75.6214 24.7045C75.2199 24.7045 74.862 24.7898 74.5476 24.9602C74.237 25.1269 73.9908 25.3598 73.8089 25.6591C73.6271 25.9545 73.5362 26.2917 73.5362 26.6705V32H71.8374ZM82.5675 23.2727V24.6364H77.8004V23.2727H82.5675ZM79.0788 21.1818H80.7777V29.4375C80.7777 29.767 80.8269 30.0152 80.9254 30.1818C81.0239 30.3447 81.1508 30.4564 81.3061 30.517C81.4652 30.5739 81.6375 30.6023 81.8232 30.6023C81.9595 30.6023 82.0788 30.5928 82.1811 30.5739C82.2834 30.5549 82.3629 30.5398 82.4197 30.5284L82.7266 31.9318C82.6281 31.9697 82.4879 32.0076 82.3061 32.0455C82.1243 32.0871 81.897 32.1098 81.6243 32.1136C81.1773 32.1212 80.7607 32.0417 80.3743 31.875C79.9879 31.7083 79.6754 31.4508 79.4368 31.1023C79.1982 30.7538 79.0788 30.3163 79.0788 29.7898V21.1818ZM84.7706 32V20.3636H86.5263V30.4886H91.799V32H84.7706ZM93.6655 32V23.2727H95.3643V32H93.6655ZM94.5234 21.9261C94.228 21.9261 93.9742 21.8277 93.7621 21.6307C93.5537 21.4299 93.4496 21.1913 93.4496 20.9148C93.4496 20.6345 93.5537 20.3958 93.7621 20.1989C93.9742 19.9981 94.228 19.8977 94.5234 19.8977C94.8189 19.8977 95.0708 19.9981 95.2791 20.1989C95.4912 20.3958 95.5973 20.6345 95.5973 20.9148C95.5973 21.1913 95.4912 21.4299 95.2791 21.6307C95.0708 21.8277 94.8189 21.9261 94.5234 21.9261ZM104.19 25.4034L102.65 25.6761C102.585 25.4792 102.483 25.2917 102.343 25.1136C102.207 24.9356 102.021 24.7898 101.786 24.6761C101.551 24.5625 101.258 24.5057 100.906 24.5057C100.424 24.5057 100.023 24.6136 99.701 24.8295C99.379 25.0417 99.218 25.3163 99.218 25.6534C99.218 25.9451 99.326 26.1799 99.5419 26.358C99.7578 26.536 100.106 26.6818 100.587 26.7955L101.974 27.1136C102.777 27.2992 103.375 27.5852 103.769 27.9716C104.163 28.358 104.36 28.8598 104.36 29.4773C104.36 30 104.209 30.4659 103.906 30.875C103.606 31.2803 103.188 31.5985 102.65 31.8295C102.116 32.0606 101.496 32.1761 100.792 32.1761C99.8146 32.1761 99.0173 31.9678 98.3999 31.5511C97.7824 31.1307 97.4036 30.5341 97.2635 29.7614L98.9055 29.5114C99.0078 29.9394 99.218 30.2633 99.5362 30.483C99.8544 30.6989 100.269 30.8068 100.781 30.8068C101.337 30.8068 101.782 30.6913 102.116 30.4602C102.449 30.2254 102.616 29.9394 102.616 29.6023C102.616 29.3295 102.513 29.1004 102.309 28.9148C102.108 28.7292 101.799 28.589 101.383 28.4943L99.9055 28.1705C99.0911 27.9848 98.4889 27.6894 98.0987 27.2841C97.7124 26.8788 97.5192 26.3655 97.5192 25.7443C97.5192 25.2292 97.6631 24.7784 97.951 24.392C98.2389 24.0057 98.6366 23.7045 99.1442 23.4886C99.6518 23.2689 100.233 23.1591 100.888 23.1591C101.832 23.1591 102.574 23.3636 103.116 23.7727C103.657 24.178 104.015 24.7216 104.19 25.4034ZM110.302 23.2727V24.6364H105.535V23.2727H110.302ZM106.813 21.1818H108.512V29.4375C108.512 29.767 108.561 30.0152 108.66 30.1818C108.758 30.3447 108.885 30.4564 109.04 30.517C109.2 30.5739 109.372 30.6023 109.558 30.6023C109.694 30.6023 109.813 30.5928 109.915 30.5739C110.018 30.5549 110.097 30.5398 110.154 30.5284L110.461 31.9318C110.362 31.9697 110.222 32.0076 110.04 32.0455C109.859 32.0871 109.631 32.1098 109.359 32.1136C108.912 32.1212 108.495 32.0417 108.109 31.875C107.722 31.7083 107.41 31.4508 107.171 31.1023C106.933 30.7538 106.813 30.3163 106.813 29.7898V21.1818Z" fill="white"/>
<path d="M3.05449 21.3333V3.04762H0V0H4.58173C4.98678 0 5.37524 0.160544 5.66165 0.446313C5.94807 0.732083 6.10897 1.11967 6.10897 1.52381V19.8095H25.1048L28.1593 7.61905H13.5111V4.57143H30.1172C30.3494 4.57143 30.5785 4.62425 30.7871 4.72585C30.9957 4.82745 31.1784 4.97516 31.3212 5.15777C31.464 5.34038 31.5633 5.55307 31.6113 5.77967C31.6594 6.00628 31.6551 6.24084 31.5987 6.46552L27.7806 21.7036C27.6978 22.0331 27.5071 22.3256 27.2387 22.5346C26.9703 22.7436 26.6396 22.8571 26.2991 22.8571H4.58173C4.17668 22.8571 3.78822 22.6966 3.50181 22.4108C3.21539 22.1251 3.05449 21.7375 3.05449 21.3333ZM6.10897 32C5.29887 32 4.52195 31.6789 3.94913 31.1074C3.3763 30.5358 3.05449 29.7607 3.05449 28.9524C3.05449 28.1441 3.3763 27.3689 3.94913 26.7974C4.52195 26.2258 5.29887 25.9048 6.10897 25.9048C6.91907 25.9048 7.69599 26.2258 8.26882 26.7974C8.84165 27.3689 9.16346 28.1441 9.16346 28.9524C9.16346 29.7607 8.84165 30.5358 8.26882 31.1074C7.69599 31.6789 6.91907 32 6.10897 32ZM24.4359 32C23.6258 32 22.8489 31.6789 22.276 31.1074C21.7032 30.5358 21.3814 29.7607 21.3814 28.9524C21.3814 28.1441 21.7032 27.3689 22.276 26.7974C22.8489 26.2258 23.6258 25.9048 24.4359 25.9048C25.246 25.9048 26.0229 26.2258 26.5957 26.7974C27.1686 27.3689 27.4904 28.1441 27.4904 28.9524C27.4904 29.7607 27.1686 30.5358 26.5957 31.1074C26.0229 31.6789 25.246 32 24.4359 32Z" fill="#F2F2F2"/>
<path d="M13.7674 7.60889C13.2917 7.60889 12.8927 7.44846 12.5703 7.12761C12.2479 6.80676 12.0873 6.41014 12.0884 5.93778C12.0884 5.4643 12.2496 5.06713 12.572 4.74628C12.8943 4.42543 13.2928 4.26555 13.7674 4.26667H30.044C30.5197 4.26667 30.9187 4.4271 31.2411 4.74795C31.5635 5.0688 31.7241 5.46541 31.723 5.93778C31.723 6.41126 31.5635 6.96803 31.2411 7.28889C30.9187 7.60974 30.5186 7.61 30.044 7.60889H13.7674ZM13.7674 14.2933C13.2917 14.2933 12.8927 14.1329 12.5703 13.812C12.2479 13.4912 12.0873 13.0946 12.0884 12.6222C12.0884 12.1487 12.2496 11.7516 12.572 11.4307C12.8943 11.1099 13.2928 10.95 13.7674 10.9511C13.7674 10.9511 27.3559 10.9511 27.8316 10.9511C28.3073 10.9511 28.7064 11.1115 29.0288 11.4324C29.3511 11.7532 29.5117 12.1499 29.5106 12.6222C29.5106 13.0957 29.3494 13.4929 29.0271 13.8137C28.7047 14.1346 28.3062 14.2944 27.8316 14.2933H13.7674ZM9.1452 7.60889C8.66948 7.60889 8.27044 7.44846 7.94807 7.12761C7.6257 6.80676 7.46507 6.41014 7.46619 5.93778C7.46619 5.4643 7.62738 5.06713 7.94975 4.74628C8.27212 4.42543 8.6706 4.26555 9.1452 4.26667C9.62092 4.26667 10.02 4.4271 10.3423 4.74795C10.6647 5.0688 10.8253 5.46541 10.8242 5.93778C10.8242 6.41126 10.663 6.80843 10.3407 7.12928C10.0183 7.45013 9.6198 7.61 9.1452 7.60889ZM9.1474 14.295C8.67168 14.295 8.27263 14.1346 7.95026 13.8137C7.62789 13.4929 7.46727 13.0963 7.46839 12.6239C7.46839 12.1504 7.62957 11.7532 7.95194 11.4324C8.27431 11.1115 8.6728 10.9517 9.1474 10.9528C9.62312 10.9528 10.0222 11.1132 10.3445 11.4341C10.6669 11.7549 10.8275 12.1515 10.8264 12.6239C10.8264 13.0974 10.6652 13.4945 10.3429 13.8154C10.0205 14.1362 9.622 14.2961 9.1474 14.295Z" fill="#F2F2F2"/>
</svg>
